<svg id="Capa_1" enable-background="new 0 0 512 512" height="512" viewBox="0 0 512 512" width="512" xmlns="http://www.w3.org/2000/svg"><g><g><path d="m113.803 247.005c-2.616 0-5.23 1.021-7.192 3.051-3.838 3.971-3.73 10.302.242 14.14 13.077 12.638 34.354 12.638 47.431 0 3.972-3.838 4.08-10.169.242-14.14s-10.169-4.079-14.14-.241c-5.414 5.231-14.221 5.231-19.635 0-1.94-1.877-4.445-2.81-6.948-2.81z"/><path d="m511.705 301.399c1.257-5.074-1.606-10.261-6.57-11.9-23.688-7.826-51.926-25.469-51.926-65.085v-20.976c0-32.349-7.41-57.665-22.025-75.243-14.144-17.012-34.706-26.004-59.463-26.004-23.718 0-43.901 8.957-58.369 25.904-15.124 17.716-23.119 43.769-23.119 75.343v20.976c0 21.94-8.618 39.373-25.626 51.88-4.056-.811-8.247-1.244-12.538-1.244-27.35 0-50.75 17.25-59.88 41.44-2.67-.75-16.66-4.52-20.79-5.73v-6.653c26.719-14.531 44.895-42.861 44.895-75.356v-39.714c0-47.278-38.45-85.742-85.712-85.742-47.277 0-85.74 38.464-85.74 85.742v39.714c0 32.49 18.176 60.815 44.897 75.348v6.66c-4.13 1.21-8.42 2.37-12.86 3.57-33.869 9.131-76.029 20.491-76.879 72.181v87.64c0 5.52 4.48 10 10 10h135.219v14.219c0 .024-.004.048-.004.073 0 5.523 4.477 10 10 10h51.901c5.523 0 10-4.477 10-10s-4.477-10-10-10h-41.898v-5.991c.12-7.32 1.09-13.32 2.83-18.3 6.29-18.02 22.57-22.82 44.74-29.36 1.04-.306 2.092-.616 3.148-.93 5.265 14.423 19.12 24.747 35.342 24.747 17.569 0 31.732-10.013 36.976-24.724 1.031.305 2.057.608 3.074.906 28.3 8.35 47 13.86 47.57 47.66v5.991h-41.982c-5.523 0-10 4.477-10 10s4.477 10 10 10h51.986c5.523 0 10-4.477 10-10 0-.025-.004-.05-.004-.075v-14.218h133.405c5.523 0 10-4.477 10-10v-87.478c0-.055 0-.11-.001-.165-.345-20.943-7.471-35.264-18.079-45.499 14.396-6.748 22.325-18.799 27.482-39.607zm-139.984-179.209c18.886 0 33.718 6.322 44.084 18.79 10.401 12.511 16.168 30.818 17.214 54.459-18.521 3.212-40.322.617-52.375-23.217-3.627-7.158-14.224-7.167-17.848 0-12.048 23.825-33.837 26.427-52.354 23.221 2.314-46.038 24.842-73.253 61.279-73.253zm-61.488 93.452c4.255.593 8.396.892 12.408.892 20.162 0 37.077-7.44 49.08-21.677 12.002 14.238 28.916 21.677 49.081 21.677 4.011 0 8.152-.299 12.408-.892v8.773c0 33.906-27.583 61.49-61.488 61.49s-61.488-27.584-61.488-61.49v-8.773zm82.328 87.548v14.938c0 11.476-9.349 20.813-20.84 20.813-11.476 0-20.812-9.337-20.812-20.813v-14.93c6.646 1.759 13.619 2.707 20.812 2.707 7.203-.001 14.185-.951 20.84-2.715zm-91.738-38.679c7.154 12.601 17.57 23.114 30.086 30.395v15.853c-4.158 1.219-8.468 2.381-12.936 3.585-2.057.554-4.145 1.12-6.241 1.695-5.075-13.087-14.304-24.105-26.067-31.409 6.202-6.006 11.273-12.735 15.158-20.119zm-89.514 57.989c6.55-16.08 22.35-27.45 40.76-27.45 21.388 0 39.242 15.388 43.182 35.714-13.329-6.379-28.156-9.788-43.189-9.788-15.039 0-29.869 3.413-43.196 9.796.549-2.864 1.369-5.633 2.443-8.272zm-146.466-133.463c0-36.25 29.491-65.742 65.74-65.742 36.234 0 65.712 29.492 65.712 65.742v10.347c-26.288.878-59.417-2.247-83.845-18.967-4.397-3.009-10.38-2.043-13.606 2.195-8.456 11.111-19.075 13.867-34 15.641v-9.216zm0 39.714v-10.369c16.084-1.798 31.233-4.736 43.811-16.787 27.364 15.493 60.791 18.619 87.64 17.8v9.356c0 36.235-29.478 65.714-65.712 65.714-36.248 0-65.739-29.479-65.739-65.714zm86.556 83.144v6.143c0 .03-.005.059-.005.089 0 11.476-9.336 20.813-20.812 20.813-11.491 0-20.84-9.337-20.84-20.813 0-.021-.003-.042-.003-.063v-6.174c6.676 1.673 13.656 2.574 20.843 2.574 7.179.001 14.15-.898 20.817-2.569zm62.27 101.764c-2.19.67-4.38 1.32-6.54 1.95-24.68 7.28-52.2 15.39-59.85 48.54h-73.762v-40.459c0-5.523-4.477-10-10-10s-10 4.477-10 10v40.459h-33.517v-77.39c.6-34.1 23.86-42.82 62.08-53.12 3.219-.87 6.49-1.756 9.744-2.675 5.397 16.232 20.727 27.976 38.759 27.976 18.02 0 33.339-11.744 38.732-27.977 3.256.919 15.914 4.356 18.834 5.186-.05.96-.07 1.93-.07 2.9v14.14c0 20.89 10.06 39.48 25.59 51.16zm56.78 7.303c0 .012-.002.023-.002.035 0 12.099-9.936 17.61-19.168 17.61-9.709 0-17.609-7.9-17.609-17.61 0-.009-.001-.018-.001-.028v-6.48c2.43.73 4.92 1.33 7.47 1.76 3.55.62 7.2.94 10.93.94 3.08 0 6.11-.22 9.07-.65 3.18-.44 6.29-1.13 9.31-2.04zm5.32-30.713c-13.441 8.961-33.617 9.409-47.05.21-12.132-7.628-20.274-21.014-20.608-36.298 26.185-17.446 61.719-17.445 87.926.004-.333 15.134-8.325 28.42-20.268 36.084zm206.535 73.898h-33.517v-40.457c0-5.523-4.477-10-10-10s-10 4.477-10 10v40.457h-71.95c-7.657-33.148-35.172-41.26-59.848-48.538-2.16-.63-4.35-1.28-6.54-1.95v-9.28c15.55-11.69 25.62-30.29 25.62-51.19v-13.97c0-1.209-.04-2.409-.107-3.603 2.415-.667 4.833-1.32 7.213-1.961 3.242-.874 6.535-1.764 9.814-2.689 5.394 16.231 20.712 27.975 38.731 27.975 18.031 0 33.36-11.743 38.758-27.974 3.254.918 6.524 1.803 9.744 2.671 38.222 10.302 61.483 19.023 62.081 53.118v77.391zm-19.698-137.458c-11.945-5.56-25.089-9.104-37.179-12.363-4.445-1.198-8.734-2.354-12.866-3.566v-15.87c12.475-7.264 22.861-17.739 30.008-30.293 11.367 21.546 31.033 33.774 47.258 40.527-4.788 13.923-11.531 18.92-27.221 21.565z"/><path d="m249.749 130.355c1.937 1.87 4.441 2.805 6.945 2.805s5.007-.935 6.945-2.805l52.918-51.077c17.489-16.865 17.998-44.813 1.129-62.308-8.148-8.433-19.13-13.193-30.922-13.403-11.216-.2-21.813 3.729-30.07 11.096-8.261-7.368-18.86-11.293-30.069-11.096-11.792.21-22.774 4.971-30.937 13.418-16.839 17.502-16.327 45.447 1.14 62.29zm-39.664-99.487c4.44-4.595 10.44-7.189 16.897-7.304.149-.002.298-.004.448-.004 6.287 0 12.193 2.37 16.68 6.705l5.641 5.443c3.874 3.738 10.013 3.738 13.887 0l5.647-5.448c4.587-4.433 10.653-6.81 17.122-6.696 6.457.115 12.457 2.709 16.89 7.297 9.208 9.549 8.929 24.811-.625 34.024l-45.977 44.377-45.98-44.38c-9.542-9.201-9.817-24.466-.63-34.014z"/><path d="m252.017 488.441c-5.523 0-10 4.477-10 10s4.477 10 10 10h.057c5.523 0 9.972-4.477 9.972-10s-4.506-10-10.029-10z"/></g></g></svg>