<?xml version="1.0" encoding="UTF-8"?>
<svg xmlns="http://www.w3.org/2000/svg" xmlns:xlink="http://www.w3.org/1999/xlink" width="512" height="512" viewBox="0 0 60 60" version="1.1"><!-- Generator: Sketch 51.3 (57544) - http://www.bohemiancoding.com/sketch --><title>034 - Life Insurance</title><desc>Created with Sketch.</desc><defs/><g id="Page-1" stroke="none" stroke-width="1" fill="none" fill-rule="evenodd"><g id="034---Life-Insurance" fill="#000000" fill-rule="nonzero"><path d="M12.542,48.64 C12.1949095,49.0078818 12.0010872,49.4942257 12,50 L12,58 C12,59.1045695 12.8954305,60 14,60 L25,60 C26.1045695,60 27,59.1045695 27,58 L27,50 C27,48.8954305 26.1045695,48 25,48 L25,46.139 C25.0306399,43.7706727 24.2579711,41.4618312 22.808,39.589 C21.9578989,38.470916 20.7993346,37.6258906 19.475,37.158 C17.3688382,36.273094 15.4318729,35.0300529 13.75,33.484 C12.1888463,32.1982345 9.97101938,32.0829806 8.285,33.2 L6.122,28.146 C5.66202057,27.1040349 4.68110027,26.3866155 3.54874229,26.2639868 C2.4163843,26.1413582 1.30462076,26.6321504 0.632242236,27.5514868 C-0.0401362855,28.4708233 -0.170979487,29.6790349 0.289,30.721 L4.208,39.342 C4.7367119,40.509062 5.47222588,41.5708311 6.379,42.476 L12.542,48.64 Z M25,58 L14,58 L14,50 L25,50 L25,58 Z M2.109,29.894 C1.94175327,29.5260467 1.97287988,29.0983304 2.19163714,28.7584681 C2.41039441,28.4186059 2.78682049,28.2131465 3.191,28.213 C3.66664654,28.2126156 4.09651136,28.4964366 4.283,28.934 L6.52,34.151 C7.11402167,35.5429028 7.97024427,36.8075456 9.042,37.876 L13.61,42.445 C13.8610745,42.7049566 14.2328779,42.8092126 14.5825073,42.7176972 C14.9321368,42.6261817 15.2051817,42.3531368 15.2966972,42.0035073 C15.3882126,41.6538779 15.2839566,41.2820745 15.024,41.031 L10.456,36.462 C9.99666328,36.0037722 9.5836624,35.5013381 9.223,34.962 C10.1833362,34.2230209 11.5268309,34.2454194 12.462,35.016 C14.3313425,36.731555 16.4918904,38.0996763 18.842,39.056 C19.7996453,39.4044679 20.6352544,40.0239652 21.247,40.839 C22.412398,42.3573757 23.0301832,44.2251802 23,46.139 L23,48 L14.731,48 L7.793,41.062 C7.05613326,40.3261769 6.45820511,39.463331 6.028,38.515 L2.109,29.894 Z" id="Shape"/><path d="M22,53 L21,53 C20.4477153,53 20,53.4477153 20,54 C20,54.5522847 20.4477153,55 21,55 L22,55 C22.5522847,55 23,54.5522847 23,54 C23,53.4477153 22.5522847,53 22,53 Z" id="Shape"/><path d="M56.809,26.213 C55.5332832,26.2121763 54.3802315,26.9728755 53.879,28.146 L51.721,33.181 C50.0291245,32.0694769 47.8101972,32.1911509 46.25,33.481 C44.5681271,35.0270529 42.6311618,36.270094 40.525,37.155 C39.2006654,37.6228906 38.0421011,38.467916 37.192,39.586 C35.741385,41.4596396 34.9686796,43.7696481 35,46.139 L35,48 C33.8954305,48 33,48.8954305 33,50 L33,58 C33,59.1045695 33.8954305,60 35,60 L46,60 C47.1045695,60 48,59.1045695 48,58 L48,50 C47.9989128,49.4942257 47.8050905,49.0078818 47.458,48.64 L53.621,42.476 C54.5277741,41.5708311 55.2632881,40.509062 55.792,39.342 L59.711,30.721 C60.1602923,29.7345526 60.0774013,28.5873735 59.4909624,27.6757642 C58.9045234,26.764155 57.8949474,26.213113 56.811,26.213 L56.809,26.213 Z M46,58 L35,58 L35,50 L46,50 L46,58 Z M57.891,29.894 L53.972,38.515 C53.5417949,39.463331 52.9438667,40.3261769 52.207,41.062 L45.269,48 L37,48 L37,46.139 C36.9698168,44.2251802 37.587602,42.3573757 38.753,40.839 C39.3635264,40.0248642 40.1972635,39.4054671 41.153,39.056 C43.5035524,38.0999535 45.6644757,36.731809 47.534,35.016 C48.4681478,34.2395601 49.8154192,34.2134035 50.779,34.953 C50.4172837,35.4963142 50.0022252,36.0021563 49.54,36.463 L44.972,41.032 C44.5930278,41.4243789 44.5984476,42.0480848 44.9841814,42.4338186 C45.3699152,42.8195524 45.9936211,42.8249722 46.386,42.446 L50.954,37.877 C52.0257557,36.8085456 52.8819783,35.5439028 53.476,34.152 L55.713,28.934 C55.9000073,28.4970055 56.3296729,28.2137095 56.805,28.214 C57.2091795,28.2141465 57.5856056,28.4196059 57.8043629,28.7594681 C58.0231201,29.0993304 58.0542467,29.5270467 57.887,29.895 L57.891,29.894 Z" id="Shape"/><path d="M39,53 L38,53 C37.4477153,53 37,53.4477153 37,54 C37,54.5522847 37.4477153,55 38,55 L39,55 C39.5522847,55 40,54.5522847 40,54 C40,53.4477153 39.5522847,53 39,53 Z" id="Shape"/><path d="M41.074,-1.77635684e-15 C36.6844643,-0.026532566 32.5553068,2.07980755 30,5.649 C27.4446932,2.07980755 23.3155357,-0.026532566 18.926,-3.27727212e-15 C10.953,-1.77635684e-15 6,5.053 6,13.188 C5.97913755,15.1698643 6.31795586,17.1390763 7,19 L2,19 C1.44771525,19 1,19.4477153 1,20 C1,20.5522847 1.44771525,21 2,21 L7.916,21 C9.35962336,23.361265 11.1991833,25.4562254 13.354,27.193 C13.866,27.649 14.363,28.093 14.828,28.536 C18.228,31.777 28.918,40.412 29.372,40.778 C29.7384487,41.0737155 30.2615513,41.0737155 30.628,40.778 C31.082,40.412 41.773,31.778 45.172,28.536 C45.637,28.093 46.134,27.649 46.646,27.193 C48.8008167,25.4562254 50.6403766,23.361265 52.084,21 L58,21 C58.5522847,21 59,20.5522847 59,20 C59,19.4477153 58.5522847,19 58,19 L53.005,19 C53.6853407,17.1387605 54.0224634,15.1695578 54,13.188 C54,5.053 49.047,-1.77635684e-15 41.074,-1.77635684e-15 Z M8,13.188 C8,6.182 12.084,2 18.926,2 C23.1540817,1.98660719 27.0558181,4.27066259 29.114,7.964 C29.3035799,8.27134017 29.6388926,8.45847919 30,8.45847919 C30.3611074,8.45847919 30.6964201,8.27134017 30.886,7.964 C32.9441819,4.27066259 36.8459183,1.98660719 41.074,2 C47.916,2 52,6.182 52,13.188 C52.0300572,15.1861971 51.6328589,17.1677565 50.835,19 L45,19 C44.5942317,19.000161 44.2287862,19.2455034 44.075,19.621 L42.961,15.721 C42.8374441,15.2957093 42.4488688,15.0023451 42.006,15 L42,15 C41.5582318,14.9999693 41.1687875,15.2898167 41.042,15.713 L39.162,21.981 L36.978,11.791 C36.8808203,11.3360093 36.482691,11.0081464 36.0175088,11.0000272 C35.5523266,10.991908 35.1429983,11.3056777 35.03,11.757 L33.219,19 L28,19 C27.5942317,19.000161 27.2287862,19.2455034 27.075,19.621 L25.961,15.721 C25.8374441,15.2957093 25.4488688,15.0023451 25.006,15 C24.5557261,14.9772823 24.1521113,15.2758065 24.042,15.713 L22.162,21.981 L19.978,11.791 C19.880788,11.335816 19.4823821,11.0078876 19.017,11 C18.5491187,10.983253 18.135125,11.300774 18.03,11.757 L16.219,19 L9.165,19 C8.3671411,17.1677565 7.96994277,15.1861971 8,13.188 Z M45.314,25.7 C44.786,26.172 44.272,26.63 43.791,27.089 C40.918,29.83 32.39,36.775 30,38.713 C27.61,36.775 19.083,29.83 16.209,27.089 C15.728,26.63 15.214,26.172 14.686,25.7 C13.0198854,24.3280624 11.5361702,22.7485694 10.271,21 L17,21 C17.4586794,20.9999879 17.8585409,20.6879311 17.97,20.243 L18.925,16.423 L21.025,26.209 C21.1205557,26.6556493 21.5066067,26.9807883 21.963,26.999 C22.4183446,27.0129729 22.8272199,26.7218537 22.963,26.287 L24.982,19.558 L26.044,23.275 C26.1644865,23.6966239 26.5455998,23.9905677 26.984,24 C27.4180965,23.9958481 27.8043246,23.7234976 27.954,23.316 L28.721,21 L34,21 C34.4586794,20.9999879 34.8585409,20.6879311 34.97,20.243 L35.925,16.423 L38.025,26.209 C38.1205557,26.6556493 38.5066067,26.9807883 38.963,26.999 L39,26.999 C39.4417682,26.9990307 39.8312125,26.7091833 39.958,26.286 L41.977,19.557 L43.039,23.274 C43.1594865,23.6956239 43.5405998,23.9895677 43.979,23.999 C44.4118185,23.9909147 44.7960487,23.719973 44.949,23.315 L45.721,21 L49.729,21 C48.4638298,22.7485694 46.9801146,24.3280624 45.314,25.7 Z" id="Shape"/></g></g></svg>
