<?xml version="1.0" encoding="iso-8859-1"?>
<!-- Generator: Adobe Illustrator 19.0.0, SVG Export Plug-In . SVG Version: 6.00 Build 0)  -->
<svg version="1.1" id="Capa_1" xmlns="http://www.w3.org/2000/svg" xmlns:xlink="http://www.w3.org/1999/xlink" x="0px" y="0px"
	 viewBox="0 0 488 488" style="enable-background:new 0 0 488 488;" xml:space="preserve">
<g>
	<g>
		<path d="M457.768,234.336C466.4,226.992,472,216.192,472,204c0-2.432-0.288-4.816-0.72-7.152c-0.088-0.488-0.16-0.968-0.264-1.448
			c-0.464-2.08-1.104-4.096-1.88-6.056c-0.264-0.672-0.568-1.32-0.864-1.976c-0.768-1.648-1.616-3.256-2.6-4.784
			c-0.512-0.8-1.08-1.552-1.648-2.312c-0.792-1.064-1.632-2.08-2.528-3.064c-0.664-0.728-1.304-1.456-2.016-2.136
			c-1.12-1.064-2.312-2.056-3.552-2.992c6.856-5.208,15.248-8.08,24.072-8.08v-16c-13.232,0-24-10.768-24-24
			c0-1.472,0.176-2.896,0.432-4.288c0.104-0.552,0.256-1.088,0.392-1.624c0.2-0.784,0.44-1.56,0.72-2.312
			c0.248-0.664,0.504-1.328,0.816-1.968c0.232-0.496,0.52-0.968,0.784-1.44c2.8-4.936,7.288-8.888,12.912-10.88
			c0.032-0.008,0.048-0.04,0.08-0.056c2.472-0.864,5.096-1.432,7.864-1.432V84c-2.768,0-5.464,0.288-8.072,0.824
			c-4.184-4.272-8.968-7.776-14.168-10.48C466.392,67,472,56.2,472,44c0-22.056-17.944-40-40-40c-22.056,0-40,17.944-40,40
			c0,12.2,5.608,23,14.24,30.344c-5.2,2.704-9.984,6.208-14.168,10.48C389.464,84.288,386.768,84,384,84s-5.464,0.288-8.072,0.824
			c-4.184-4.272-8.968-7.776-14.168-10.48C370.392,67,376,56.2,376,44c0-22.056-17.944-40-40-40c-22.056,0-40,17.944-40,40
			c0,12.2,5.608,23,14.24,30.344c-5.2,2.704-9.984,6.208-14.168,10.48C293.464,84.288,290.768,84,288,84s-5.464,0.288-8.072,0.824
			c-4.184-4.272-8.968-7.776-14.168-10.48C274.392,67,280,56.2,280,44c0-22.056-17.944-40-40-40c-22.056,0-40,17.944-40,40
			c0,12.2,5.608,23,14.24,30.344c-5.2,2.704-9.984,6.208-14.168,10.48C197.464,84.288,194.768,84,192,84s-5.464,0.288-8.072,0.824
			c-4.184-4.272-8.968-7.776-14.168-10.48C178.392,67,184,56.2,184,44c0-22.056-17.944-40-40-40c-22.056,0-40,17.944-40,40
			c0,12.2,5.608,23,14.24,30.344c-5.2,2.704-9.984,6.208-14.168,10.48C101.464,84.288,98.768,84,96,84s-5.464,0.288-8.072,0.824
			c-4.184-4.272-8.968-7.776-14.168-10.48C82.392,67,88,56.2,88,44C88,21.944,70.056,4,48,4C25.944,4,8,21.944,8,44
			c0,12.2,5.608,23,14.24,30.344c-5.2,2.704-9.984,6.208-14.168,10.48C5.464,84.288,2.768,84,0,84v16
			c2.768,0,5.392,0.568,7.864,1.432c0.032,0.008,0.048,0.04,0.08,0.056c5.624,1.984,10.112,5.944,12.912,10.88
			c0.264,0.472,0.544,0.944,0.784,1.44c0.304,0.64,0.568,1.304,0.816,1.976c0.28,0.752,0.52,1.52,0.72,2.304
			c0.144,0.544,0.288,1.08,0.392,1.632C23.824,121.104,24,122.528,24,124c0,13.232-10.768,24-24,24v16
			c8.824,0,17.216,2.872,24.088,8.08c-1.248,0.928-2.432,1.928-3.552,2.992c-0.712,0.68-1.352,1.408-2.016,2.136
			c-0.896,0.976-1.736,2-2.528,3.064c-0.568,0.76-1.136,1.504-1.648,2.312c-0.984,1.528-1.832,3.136-2.6,4.784
			c-0.304,0.656-0.6,1.304-0.864,1.976c-0.784,1.96-1.416,3.976-1.88,6.056c-0.104,0.48-0.176,0.968-0.264,1.448
			C8.288,199.184,8,201.568,8,204c0,19.312,13.768,35.472,32,39.192V308H8v16h40h24v104c0,4.416,3.576,8,8,8h40h40
			c4.424,0,8-3.584,8-8V324h24h96h96h96h8v-8v-8v-24C488,262.416,475.704,243.68,457.768,234.336z M456,204
			c0,13.232-10.768,24-24,24s-24-10.768-24-24c0-1.472,0.176-2.896,0.432-4.288c0.104-0.552,0.256-1.088,0.392-1.624
			c0.2-0.784,0.44-1.56,0.72-2.312c0.248-0.664,0.504-1.328,0.816-1.968c0.232-0.496,0.52-0.968,0.784-1.44
			c2.8-4.936,7.288-8.888,12.912-10.88c0.032-0.008,0.048-0.04,0.08-0.056c2.472-0.864,5.096-1.432,7.864-1.432
			s5.392,0.568,7.864,1.432c0.032,0.008,0.048,0.04,0.08,0.056c5.624,1.984,10.112,5.944,12.912,10.88
			c0.264,0.472,0.544,0.944,0.784,1.44c0.304,0.64,0.568,1.304,0.816,1.976c0.28,0.752,0.52,1.52,0.72,2.304
			c0.144,0.544,0.288,1.08,0.392,1.632C455.824,201.104,456,202.528,456,204z M432,20c13.232,0,24,10.768,24,24s-10.768,24-24,24
			s-24-10.768-24-24S418.768,20,432,20z M456.08,92.08c-1.248,0.928-2.432,1.928-3.552,2.992c-0.712,0.68-1.352,1.408-2.016,2.136
			c-0.896,0.976-1.736,2-2.528,3.064c-0.568,0.76-1.136,1.504-1.648,2.312c-0.984,1.528-1.832,3.136-2.6,4.784
			c-0.304,0.656-0.6,1.304-0.864,1.976c-0.784,1.96-1.416,3.976-1.88,6.056c-0.104,0.48-0.176,0.968-0.264,1.448
			c-0.44,2.336-0.728,4.72-0.728,7.152c0,12.2,5.608,23,14.24,30.344c-5.2,2.704-9.984,6.208-14.168,10.48
			C437.464,164.288,434.768,164,432,164s-5.464,0.288-8.072,0.824c-4.184-4.272-8.968-7.776-14.168-10.48
			C418.392,147,424,136.2,424,124c0-2.432-0.288-4.816-0.72-7.152c-0.088-0.488-0.16-0.968-0.264-1.448
			c-0.464-2.08-1.104-4.096-1.88-6.056c-0.264-0.672-0.568-1.32-0.864-1.976c-0.768-1.648-1.616-3.256-2.6-4.784
			c-0.512-0.8-1.08-1.552-1.648-2.312c-0.792-1.064-1.632-2.08-2.528-3.064c-0.664-0.728-1.304-1.456-2.016-2.136
			c-1.136-1.064-2.32-2.064-3.568-2.992C421.648,81.664,442.352,81.664,456.08,92.08z M360.824,118.088
			c0.2-0.784,0.44-1.56,0.72-2.312c0.248-0.664,0.504-1.328,0.816-1.968c0.232-0.496,0.52-0.968,0.784-1.44
			c2.8-4.936,7.288-8.888,12.912-10.88c0.032-0.008,0.048-0.04,0.08-0.056c2.472-0.864,5.096-1.432,7.864-1.432
			s5.392,0.568,7.864,1.432c0.032,0.008,0.048,0.04,0.08,0.056c5.624,1.984,10.112,5.944,12.912,10.88
			c0.264,0.472,0.544,0.944,0.784,1.44c0.304,0.64,0.568,1.304,0.816,1.976c0.28,0.752,0.52,1.52,0.72,2.304
			c0.144,0.544,0.288,1.08,0.392,1.632c0.256,1.384,0.432,2.808,0.432,4.28c0,13.232-10.768,24-24,24s-24-10.768-24-24
			c0-1.472,0.176-2.896,0.432-4.288C360.536,119.16,360.688,118.624,360.824,118.088z M336,20c13.232,0,24,10.768,24,24
			s-10.768,24-24,24s-24-10.768-24-24S322.768,20,336,20z M360.08,92.08c-1.248,0.928-2.432,1.928-3.552,2.992
			c-0.712,0.68-1.352,1.408-2.016,2.136c-0.896,0.976-1.736,2-2.528,3.064c-0.568,0.76-1.136,1.504-1.648,2.312
			c-0.984,1.528-1.832,3.136-2.6,4.784c-0.304,0.656-0.6,1.304-0.864,1.976c-0.784,1.96-1.416,3.976-1.88,6.056
			c-0.104,0.48-0.176,0.968-0.264,1.448c-0.44,2.336-0.728,4.72-0.728,7.152c0,12.2,5.608,23,14.24,30.344
			c-5.2,2.704-9.984,6.208-14.168,10.48C341.464,164.288,338.768,164,336,164s-5.464,0.288-8.072,0.824
			c-4.184-4.272-8.968-7.776-14.168-10.48C322.392,147,328,136.2,328,124c0-2.432-0.288-4.816-0.72-7.152
			c-0.088-0.488-0.16-0.968-0.264-1.448c-0.464-2.08-1.104-4.096-1.88-6.056c-0.264-0.672-0.568-1.32-0.864-1.976
			c-0.768-1.648-1.616-3.256-2.6-4.784c-0.512-0.8-1.08-1.552-1.648-2.312c-0.792-1.064-1.632-2.08-2.528-3.064
			c-0.664-0.728-1.304-1.456-2.016-2.136c-1.136-1.064-2.32-2.064-3.568-2.992C325.648,81.664,346.352,81.664,360.08,92.08z
			 M359.568,199.72c0.256,1.384,0.432,2.808,0.432,4.28c0,13.232-10.768,24-24,24s-24-10.768-24-24c0-1.472,0.176-2.896,0.432-4.288
			c0.104-0.552,0.256-1.088,0.392-1.624c0.2-0.784,0.44-1.56,0.72-2.312c0.248-0.664,0.504-1.328,0.816-1.968
			c0.232-0.496,0.52-0.968,0.784-1.44c2.8-4.936,7.288-8.888,12.912-10.88c0.032-0.008,0.048-0.04,0.08-0.056
			c2.472-0.864,5.096-1.432,7.864-1.432s5.392,0.568,7.864,1.432c0.032,0.008,0.048,0.04,0.08,0.056
			c5.624,1.984,10.112,5.944,12.912,10.88c0.264,0.472,0.544,0.944,0.784,1.44c0.304,0.64,0.568,1.304,0.816,1.976
			c0.28,0.752,0.52,1.52,0.72,2.304C359.32,198.632,359.464,199.168,359.568,199.72z M264.824,118.088
			c0.2-0.784,0.44-1.56,0.72-2.312c0.248-0.664,0.504-1.328,0.816-1.968c0.232-0.496,0.52-0.968,0.784-1.44
			c2.8-4.936,7.288-8.888,12.912-10.88c0.032-0.008,0.048-0.04,0.08-0.056c2.472-0.864,5.096-1.432,7.864-1.432
			s5.392,0.568,7.864,1.432c0.032,0.008,0.048,0.04,0.08,0.056c5.624,1.984,10.112,5.944,12.912,10.88
			c0.264,0.472,0.544,0.944,0.784,1.44c0.304,0.64,0.568,1.304,0.816,1.976c0.28,0.752,0.52,1.52,0.72,2.304
			c0.144,0.544,0.288,1.08,0.392,1.632c0.256,1.384,0.432,2.808,0.432,4.28c0,13.232-10.768,24-24,24s-24-10.768-24-24
			c0-1.472,0.176-2.896,0.432-4.288C264.536,119.16,264.688,118.624,264.824,118.088z M240,20c13.232,0,24,10.768,24,24
			s-10.768,24-24,24s-24-10.768-24-24S226.768,20,240,20z M264.08,92.08c-1.248,0.928-2.432,1.928-3.552,2.992
			c-0.712,0.68-1.352,1.408-2.016,2.136c-0.896,0.976-1.736,2-2.528,3.064c-0.568,0.76-1.136,1.504-1.648,2.312
			c-0.984,1.528-1.832,3.136-2.6,4.784c-0.304,0.656-0.6,1.304-0.864,1.976c-0.784,1.96-1.416,3.976-1.88,6.056
			c-0.104,0.48-0.176,0.968-0.264,1.448c-0.44,2.336-0.728,4.72-0.728,7.152c0,12.208,5.616,23.016,14.264,30.36
			c-0.992,0.52-1.936,1.112-2.896,1.688l-5.712-5.712c-3.128-3.128-8.184-3.128-11.312,0L229.84,162.84
			c-3.664-3.384-7.72-6.232-12.08-8.504C226.392,147,232,136.2,232,124c0-2.432-0.288-4.816-0.72-7.152
			c-0.088-0.488-0.16-0.968-0.264-1.448c-0.464-2.08-1.104-4.096-1.88-6.056c-0.264-0.672-0.568-1.32-0.864-1.976
			c-0.768-1.648-1.616-3.256-2.6-4.784c-0.512-0.8-1.08-1.552-1.648-2.312c-0.792-1.064-1.632-2.08-2.528-3.064
			c-0.664-0.728-1.304-1.456-2.016-2.136c-1.136-1.064-2.32-2.064-3.568-2.992C229.648,81.664,250.352,81.664,264.08,92.08z
			 M264,204c0,13.232-10.768,24-24,24c-1.456,0-2.88-0.136-4.296-0.392l27.864-27.864c0.016,0.096,0.048,0.192,0.072,0.288
			C263.856,201.336,264,202.664,264,204z M218.52,174.168L196.688,196h-13.552c-1.952-9.536-7.304-18-15.2-23.856
			C174.872,166.864,183.288,164,192,164C201.912,164,211.248,167.672,218.52,174.168z M168.824,118.088
			c0.2-0.784,0.44-1.56,0.72-2.312c0.248-0.664,0.504-1.328,0.816-1.968c0.232-0.496,0.52-0.968,0.784-1.44
			c2.8-4.936,7.288-8.888,12.912-10.88c0.032-0.008,0.048-0.04,0.08-0.056c2.472-0.864,5.096-1.432,7.864-1.432
			s5.392,0.568,7.864,1.432c0.032,0.008,0.048,0.04,0.08,0.056c5.624,1.984,10.112,5.944,12.912,10.88
			c0.264,0.472,0.544,0.944,0.784,1.44c0.304,0.64,0.568,1.304,0.816,1.976c0.28,0.752,0.52,1.52,0.72,2.304
			c0.144,0.544,0.288,1.08,0.392,1.632c0.256,1.384,0.432,2.808,0.432,4.28c0,13.232-10.768,24-24,24s-24-10.768-24-24
			c0-1.472,0.176-2.896,0.432-4.288C168.536,119.16,168.688,118.624,168.824,118.088z M144,20c13.232,0,24,10.768,24,24
			s-10.768,24-24,24s-24-10.768-24-24S130.768,20,144,20z M168.08,92.08c-1.248,0.928-2.432,1.928-3.552,2.992
			c-0.712,0.68-1.352,1.408-2.016,2.136c-0.896,0.976-1.736,2-2.528,3.064c-0.568,0.76-1.136,1.504-1.648,2.312
			c-0.984,1.528-1.832,3.136-2.6,4.784c-0.304,0.656-0.6,1.304-0.864,1.976c-0.784,1.96-1.416,3.976-1.88,6.056
			c-0.104,0.48-0.176,0.968-0.264,1.448c-0.44,2.336-0.728,4.72-0.728,7.152c0,1.632,0.288,3.184,0.48,4.76
			c-4.824-4.448-10.544-7.92-16.88-10.104c-0.08-0.608-0.216-1.208-0.328-1.808c-0.088-0.488-0.16-0.968-0.264-1.448
			c-0.464-2.08-1.104-4.096-1.88-6.056c-0.264-0.672-0.568-1.32-0.864-1.976c-0.768-1.648-1.616-3.256-2.6-4.784
			c-0.512-0.8-1.08-1.552-1.648-2.312c-0.792-1.064-1.632-2.08-2.528-3.064c-0.664-0.728-1.304-1.456-2.016-2.136
			c-1.128-1.064-2.312-2.064-3.56-2.992C133.648,81.664,154.352,81.664,168.08,92.08z M166.544,196H155.68
			c2.232-2.488,4.208-5.192,5.888-8.104C163.776,190.248,165.456,192.992,166.544,196z M120.112,132
			C137.704,132.064,152,146.392,152,164c0,1.248-0.232,2.424-0.368,3.632c-0.008,0.072-0.056,0.136-0.064,0.208
			c-0.216,1.864-0.576,3.608-1.104,5.336c-0.016,0.048,0,0.096-0.016,0.144C146.432,186.4,134.384,196,120,196
			c-17.648,0-32-14.352-32-32c0-3.144,0.6-6.12,1.448-8.992c0.016-0.056,0.064-0.088,0.08-0.144
			c1.144-3.832,2.96-7.296,5.256-10.328c0.176-0.232,0.368-0.448,0.552-0.672c0.976-1.208,2.024-2.344,3.152-3.392
			c0.504-0.464,1.056-0.88,1.592-1.312c0.928-0.752,1.864-1.488,2.864-2.136c0.864-0.544,1.784-1,2.696-1.464
			c0.816-0.416,1.616-0.872,2.464-1.216c1.208-0.488,2.472-0.824,3.744-1.168c0.68-0.184,1.328-0.432,2.024-0.568
			c1.6-0.312,3.264-0.44,4.936-0.496C119.248,132.096,119.672,132,120.112,132z M72.824,118.088c0.2-0.784,0.44-1.56,0.72-2.312
			c0.248-0.664,0.504-1.328,0.816-1.968c0.232-0.496,0.52-0.968,0.784-1.44c2.8-4.936,7.288-8.888,12.912-10.88
			c0.032-0.008,0.048-0.04,0.08-0.056C90.608,100.568,93.232,100,96,100c2.624,0,5.152,0.424,7.512,1.2
			c0.16,0.072,0.264,0.224,0.432,0.28c6.96,2.456,12.224,7.912,14.616,14.552c-0.32,0.008-0.624,0.072-0.944,0.088
			c-1.392,0.072-2.768,0.184-4.128,0.376c-0.64,0.088-1.28,0.184-1.912,0.296c-1.328,0.232-2.624,0.536-3.912,0.88
			c-0.544,0.144-1.096,0.256-1.632,0.424c-1.696,0.52-3.352,1.12-4.96,1.816c-0.576,0.248-1.12,0.544-1.68,0.816
			c-1.104,0.528-2.184,1.08-3.24,1.688c-0.6,0.344-1.184,0.704-1.76,1.072c-1.136,0.72-2.232,1.488-3.304,2.296
			c-0.352,0.272-0.72,0.52-1.064,0.792c-4.68,3.752-8.624,8.36-11.632,13.584c-1.064-1.168-2.048-2.4-2.864-3.752
			c-0.288-0.464-0.496-0.968-0.744-1.448c-0.64-1.232-1.184-2.512-1.6-3.848c-0.16-0.496-0.32-0.992-0.44-1.504
			C72.304,127.776,72,125.912,72,124c0-1.472,0.176-2.896,0.432-4.288C72.536,119.16,72.688,118.624,72.824,118.088z M48,20
			c13.232,0,24,10.768,24,24S61.232,68,48,68S24,57.232,24,44S34.768,20,48,20z M23.928,92.08c13.736-10.416,34.44-10.416,48.168,0
			c-1.248,0.928-2.432,1.928-3.552,2.992c-0.712,0.68-1.352,1.408-2.016,2.136c-0.896,0.976-1.736,2-2.528,3.064
			c-0.568,0.76-1.136,1.504-1.648,2.312c-0.984,1.528-1.832,3.136-2.6,4.784c-0.304,0.656-0.6,1.304-0.864,1.976
			c-0.784,1.96-1.416,3.976-1.88,6.056c-0.104,0.48-0.176,0.968-0.264,1.448C56.288,119.184,56,121.568,56,124
			c0,1.824,0.136,3.624,0.376,5.408c0.128,0.92,0.36,1.8,0.544,2.704c0.176,0.84,0.304,1.688,0.536,2.504
			c0.272,0.976,0.64,1.912,0.976,2.856c0.264,0.728,0.496,1.472,0.8,2.184c0.352,0.816,0.768,1.584,1.176,2.376
			c0.424,0.84,0.84,1.688,1.328,2.496c0.328,0.552,0.704,1.064,1.064,1.6c0.696,1.04,1.416,2.064,2.2,3.04
			c0.2,0.248,0.424,0.48,0.632,0.728c2.064,2.424,4.4,4.624,7.024,6.512c-0.392,2.48-0.656,5-0.656,7.592
			c0,3.048,0.32,6.024,0.864,8.92C66.016,167.424,57.44,164,48,164c-2.768,0-5.464,0.288-8.072,0.824
			c-4.184-4.28-8.968-7.776-14.168-10.48C34.392,147,40,136.2,40,124c0-2.432-0.288-4.816-0.72-7.152
			c-0.088-0.488-0.16-0.968-0.264-1.448c-0.464-2.08-1.104-4.096-1.88-6.056c-0.264-0.672-0.568-1.32-0.864-1.976
			c-0.768-1.648-1.616-3.256-2.6-4.784c-0.512-0.8-1.08-1.552-1.648-2.312c-0.792-1.064-1.632-2.08-2.528-3.064
			c-0.664-0.728-1.304-1.456-2.016-2.136C26.36,94.008,25.168,93.016,23.928,92.08z M47.36,213.016
			c-0.376,0.528-0.712,1.072-1.064,1.624c-0.968,1.528-1.832,3.112-2.592,4.768c-0.232,0.504-0.496,0.992-0.712,1.504
			c-0.784,1.92-1.456,3.888-1.936,5.944c-0.504-0.152-1.016-0.28-1.504-0.464c-0.472-0.176-0.944-0.344-1.4-0.552
			c-0.968-0.44-1.888-0.952-2.776-1.512c-0.32-0.2-0.656-0.36-0.968-0.568c-1.16-0.8-2.24-1.688-3.24-2.672
			c-0.256-0.248-0.464-0.536-0.704-0.8c-0.72-0.776-1.408-1.584-2.024-2.448c-0.296-0.408-0.552-0.848-0.816-1.28
			c-0.488-0.792-0.944-1.616-1.344-2.464c-0.224-0.472-0.432-0.952-0.624-1.44c-0.36-0.92-0.64-1.872-0.88-2.84
			c-0.112-0.456-0.256-0.896-0.344-1.36C24.176,207,24,205.52,24,204c0-1.472,0.176-2.896,0.432-4.288
			c0.104-0.552,0.256-1.088,0.392-1.624c0.2-0.784,0.44-1.56,0.72-2.312c0.248-0.664,0.504-1.328,0.816-1.968
			c0.232-0.496,0.52-0.968,0.784-1.44c2.8-4.936,7.288-8.888,12.912-10.88c0.032-0.008,0.048-0.04,0.08-0.056
			C42.608,180.568,45.232,180,48,180c10.816,0,19.976,7.184,22.968,17.024c-2.096,0.488-4.112,1.176-6.072,1.984
			c-0.496,0.208-0.968,0.464-1.456,0.688c-1.672,0.768-3.28,1.64-4.824,2.616c-0.544,0.344-1.08,0.68-1.6,1.048
			C53.264,206.008,50.008,209.264,47.36,213.016z M160,228c-4.424,0-8,3.584-8,8v184h-24V316h-16v104H88V236H72v72H56v-72
			c0-13.232,10.768-24,24-24h120c2.128,0,4.16-0.84,5.656-2.344L248,167.312l4.664,4.664l8.024,8.024l-0.104,0.104l-0.032,0.032
			l-44.456,44.456L212.688,228H160z M184,284v24h-16v-64h32.888C190.48,254.176,184,268.336,184,284z M280,308h-80v-24
			c0-22.056,17.944-40,40-40c22.056,0,40,17.944,40,40V308z M265.768,234.336C274.4,226.992,280,216.192,280,204
			c0-1.824-0.168-3.624-0.408-5.4c-0.072-0.528-0.168-1.048-0.264-1.568c-0.24-1.328-0.544-2.64-0.92-3.936
			c-0.144-0.496-0.256-0.992-0.416-1.48c-0.504-1.536-1.088-3.04-1.776-4.512l1.448-1.448c3.128-3.128,3.128-8.184,0-11.312
			l-6.584-6.584c13.048-6.136,29.52-4.392,41.016,4.32c-1.248,0.928-2.432,1.928-3.552,2.992c-0.712,0.68-1.352,1.408-2.016,2.136
			c-0.896,0.976-1.736,2-2.528,3.064c-0.568,0.76-1.136,1.504-1.648,2.312c-0.984,1.528-1.832,3.136-2.6,4.784
			c-0.304,0.656-0.6,1.304-0.864,1.976c-0.784,1.96-1.416,3.976-1.88,6.056c-0.104,0.48-0.176,0.968-0.264,1.448
			c-0.456,2.336-0.744,4.72-0.744,7.152c0,12.192,5.6,22.992,14.232,30.336c-9.216,4.8-16.904,12.088-22.232,20.968
			C282.672,246.424,274.984,239.136,265.768,234.336z M376,308h-80v-24c0-22.056,17.944-40,40-40c22.056,0,40,17.944,40,40V308z
			 M361.768,234.336C370.4,226.992,376,216.192,376,204c0-2.432-0.288-4.816-0.72-7.152c-0.088-0.488-0.16-0.968-0.264-1.448
			c-0.464-2.08-1.104-4.096-1.88-6.056c-0.264-0.672-0.568-1.32-0.864-1.976c-0.768-1.648-1.616-3.256-2.6-4.784
			c-0.512-0.8-1.08-1.552-1.648-2.312c-0.792-1.064-1.632-2.08-2.528-3.064c-0.664-0.728-1.304-1.456-2.016-2.136
			c-1.12-1.064-2.312-2.056-3.552-2.992c13.736-10.416,34.44-10.416,48.168,0c-1.248,0.928-2.432,1.928-3.552,2.992
			c-0.712,0.68-1.352,1.408-2.016,2.136c-0.896,0.976-1.736,2-2.528,3.064c-0.568,0.76-1.136,1.504-1.648,2.312
			c-0.984,1.528-1.832,3.136-2.6,4.784c-0.304,0.656-0.6,1.304-0.864,1.976c-0.784,1.96-1.416,3.976-1.88,6.056
			c-0.104,0.48-0.176,0.968-0.264,1.448c-0.456,2.336-0.744,4.72-0.744,7.152c0,12.192,5.6,22.992,14.232,30.336
			c-9.216,4.8-16.904,12.088-22.232,20.968C378.672,246.424,370.984,239.136,361.768,234.336z M472,308h-80v-24
			c0-22.056,17.944-40,40-40c22.056,0,40,17.944,40,40V308z"/>
	</g>
</g>
<g>
	<g>
		<path d="M480,388h-24v-24c0-2.12-0.84-4.16-2.344-5.656l-16-16l-11.312,11.312L440,367.312V388h-96c-4.424,0-8,3.584-8,8v80
			c0,4.416,3.576,8,8,8h136c4.424,0,8-3.584,8-8v-80C488,391.584,484.424,388,480,388z M472,468H352v-64h120V468z"/>
	</g>
</g>
<g>
	<g>
		<rect x="8" y="468" width="16" height="16"/>
	</g>
</g>
<g>
	<g>
		<rect x="40" y="468" width="16" height="16"/>
	</g>
</g>
<g>
	<g>
		<rect x="72" y="468" width="16" height="16"/>
	</g>
</g>
<g>
	<g>
		<rect x="112" y="228" width="16" height="48"/>
	</g>
</g>
<g>
</g>
<g>
</g>
<g>
</g>
<g>
</g>
<g>
</g>
<g>
</g>
<g>
</g>
<g>
</g>
<g>
</g>
<g>
</g>
<g>
</g>
<g>
</g>
<g>
</g>
<g>
</g>
<g>
</g>
</svg>
